<mxfile host="app.diagrams.net" modified="2023-08-21T14:02:29.621Z" agent="Mozilla/5.0 (Windows NT 10.0; Win64; x64; rv:109.0) Gecko/20100101 Firefox/116.0" version="21.6.8" etag="XuO6wzECnOD-2Tl2FYuu" type="github">
  <diagram name="PÃ¡gina-1" id="G9xhIii06Nct7UpjTlMP">
    <mxGraphModel>
      <root>
        <mxCell id="0" />
        <mxCell id="1" parent="0" />
      </root>
    </mxGraphModel>
  </diagram>
</mxfile>
